# xmcd
#
# Track frame offsets:
#  150
#  23018
#  37057
#  57194
#  76549
#  103808
#  126558
#  151942
#  164866
#
# Disc length: 2439 seconds
#
# Revision: 3
# Processed by: cddbd v1.5.2PL0 Copyright (c) Steve Scherf et al.
# Submitted via: Collectorz.com_Music_Collector 6.11
#
DISCID=71098509
DTITLE=The Soul Searchers - Salt Of The Earth
DYEAR=1974
DGENRE=Funk
TTITLE0=I Rolled It You Hold It
TTITLE1=Blow Your Whistle
TTITLE2=Close to You
TTITLE3=Funk to the Folks
TTITLE4=Ain't It Heavy
TTITLE5=Windsong
TTITLE6=Ashleys Roachclip
TTITLE7=We Share
TTITLE8=If It Ain't Funky
EXTD=
EXTT0=
EXTT1=
EXTT2=
EXTT3=
EXTT4=
EXTT5=
EXTT6=
EXTT7=
EXTT8=
PLAYORDER=
